<svg xmlns="http://www.w3.org/2000/svg" viewBox="0 0 1024 768" width="1024" height="768">
<defs>
  <linearGradient id="g21" x1="0" y1="0" x2="0" y2="1">
    <stop offset="0%" stop-color="#1a2a10"/><stop offset="50%" stop-color="#3a5a20"/><stop offset="100%" stop-color="#6a8a50"/>
  </linearGradient>
</defs>
<rect width="1024" height="768" fill="url(#g21)"/>
<path d="M0,428 Q200,398 400,418 Q600,393 800,413 Q900,398 1024,408 L1024,768 L0,768Z" fill="#4a6a30"/>
<path d="M0,498 Q300,466 600,483 Q800,460 1024,473 L1024,768 L0,768Z" fill="#3a5a28"/>
<path d="M0,568 Q250,540 500,556 Q750,530 1024,546 L1024,768 L0,768Z" fill="#2a4a20"/>
<path d="M100,426 Q105,413 110,423" stroke="#5a8030" stroke-width="2" fill="none"/>
<path d="M280,418 Q285,405 290,415" stroke="#5a8030" stroke-width="2" fill="none"/>
<path d="M550,410 Q555,397 560,407" stroke="#5a8030" stroke-width="2" fill="none"/>
<path d="M750,416 Q755,403 760,413" stroke="#5a8030" stroke-width="2" fill="none"/>
<path d="M900,408 Q905,395 910,405" stroke="#5a8030" stroke-width="2" fill="none"/>
<ellipse cx="512" cy="388" rx="122" ry="41" fill="#d4c090"/>
<path d="M390,388 Q430,313 512,303 Q594,313 634,388Z" fill="#e8d0a0"/>
<rect x="462" y="355" width="52" height="35" fill="#2a1a08"/>
<circle cx="512" cy="328" r="9" fill="#c84020"/>
<path d="M418,373 Q466,358 512,368 Q558,358 606,373" stroke="#c84020" stroke-width="2" fill="none" opacity="0.6"/>
<ellipse cx="278" cy="413" rx="72" ry="26" fill="#c8b880"/>
<path d="M206,413 Q240,361 278,352 Q316,361 350,413Z" fill="#d4c490"/>
<ellipse cx="742" cy="408" rx="72" ry="26" fill="#c8b880"/>
<path d="M670,408 Q704,356 742,347 Q780,356 814,408Z" fill="#d4c490"/>
<g transform="translate(148,488) scale(0.68)"><ellipse cx="0" cy="0" rx="38" ry="20" fill="#3a2a10"/><ellipse cx="-18" cy="-16" rx="10" ry="15" fill="#3a2a10"/><ellipse cx="-22" cy="-31" rx="6" ry="10" fill="#3a2a10"/><ellipse cx="6" cy="-10" rx="5" ry="11" fill="#2a1a08"/><ellipse cx="15" cy="-5" rx="5" ry="11" fill="#2a1a08"/><ellipse cx="24" cy="0" rx="5" ry="11" fill="#2a1a08"/><ellipse cx="33" cy="5" rx="5" ry="11" fill="#2a1a08"/></g>
<g transform="translate(258,478) scale(0.62)"><ellipse cx="0" cy="0" rx="36" ry="19" fill="#4a3a18"/><ellipse cx="-17" cy="-15" rx="9" ry="14" fill="#4a3a18"/><ellipse cx="-21" cy="-29" rx="6" ry="9" fill="#4a3a18"/><ellipse cx="5" cy="-9" rx="5" ry="11" fill="#3a2a10"/><ellipse cx="14" cy="-4" rx="5" ry="11" fill="#3a2a10"/><ellipse cx="23" cy="1" rx="5" ry="11" fill="#3a2a10"/></g>
<g transform="translate(820,483) scale(0.65)"><ellipse cx="0" cy="0" rx="37" ry="19" fill="#3a2a10"/><ellipse cx="-17" cy="-15" rx="9" ry="14" fill="#3a2a10"/><ellipse cx="-21" cy="-29" rx="6" ry="9" fill="#3a2a10"/><ellipse cx="5" cy="-9" rx="5" ry="11" fill="#2a1a08"/><ellipse cx="14" cy="-4" rx="5" ry="11" fill="#2a1a08"/><ellipse cx="23" cy="1" rx="5" ry="11" fill="#2a1a08"/></g>
<g transform="translate(512,368)"><rect x="-100" y="-22" width="200" height="42" rx="4" fill="#0a0a1ecc" stroke="#f0d78c55" stroke-width="1"/><text x="0" y="-4" text-anchor="middle" fill="#f0d78c" font-family="serif" font-size="15" font-weight="bold">蒙古草原 · Mongol Steppe</text><text x="0" y="16" text-anchor="middle" fill="#f0d78c88" font-family="serif" font-size="11">蒙古帝国 · 最后的丝路繁荣时代</text></g>
<rect x="0" y="702" width="1024" height="50" fill="#0a0a1ecc"/><text x="512" y="730" text-anchor="middle" fill="#f0d78c" font-family="serif" font-size="24" font-weight="bold">蒙古草原 · 帕克斯蒙古利亚</text><text x="512" y="750" text-anchor="middle" fill="#f0d78c99" font-family="serif" font-size="13">蒙古帝国保障了丝路的最后一次大繁荣</text>
</svg>