<svg xmlns="http://www.w3.org/2000/svg" viewBox="0 0 1024 768" width="1024" height="768">
<defs>
  <linearGradient id="g5" x1="0" y1="0" x2="0" y2="1">
    <stop offset="0%" stop-color="#1a3a5a"/><stop offset="60%" stop-color="#4a8ab0"/><stop offset="100%" stop-color="#d4c090"/>
  </linearGradient>
</defs>
<rect width="1024" height="768" fill="url(#g5)"/>
<rect x="0" y="558" width="1024" height="210" fill="#c4a070"/>
<rect x="0" y="538" width="1024" height="22" fill="#d4b080"/>
<rect x="58" y="348" width="342" height="212" fill="#f0e0b0" stroke="#c8a040" stroke-width="2"/>
<rect x="63" y="248" width="56" height="103" fill="#e8d090"/>
<ellipse cx="91" cy="248" rx="28" ry="36" fill="#d0a040"/>
<rect x="81" y="218" width="20" height="32" fill="#c09030"/>
<circle cx="91" cy="216" r="8" fill="#e8c040"/>
<rect x="342" y="253" width="54" height="98" fill="#e8d090"/>
<ellipse cx="369" cy="253" rx="27" ry="34" fill="#d0a040"/>
<rect x="359" y="222" width="20" height="33" fill="#c09030"/>
<circle cx="369" cy="220" r="8" fill="#e8c040"/>
<path d="M118,348 Q175,298 232,348" fill="#b0d0e0" stroke="#c8a040" stroke-width="1"/>
<path d="M252,348 Q309,298 366,348" fill="#b0d0e0" stroke="#c8a040" stroke-width="1"/>
<ellipse cx="229" cy="348" rx="72" ry="57" fill="#d8b840"/>
<ellipse cx="229" cy="340" rx="52" ry="42" fill="#e8c850"/>
<ellipse cx="229" cy="334" rx="30" ry="26" fill="#f0d040" opacity="0.8"/>
<rect x="518" y="398" width="452" height="168" fill="#f5e8c0" stroke="#c8a040" stroke-width="1"/>
<rect x="533" y="378" width="62" height="30" fill="#e88020"/>
<rect x="613" y="373" width="62" height="35" fill="#c04020"/>
<rect x="693" y="368" width="62" height="40" fill="#208040"/>
<rect x="773" y="376" width="62" height="32" fill="#6020a0"/>
<rect x="853" y="370" width="62" height="38" fill="#204080"/>
<rect x="518" y="408" width="452" height="8" fill="#d04020" opacity="0.6"/>
<rect x="518" y="428" width="452" height="8" fill="#f0a020" opacity="0.6"/>
<rect x="518" y="448" width="452" height="8" fill="#20a040" opacity="0.6"/>
<circle cx="568" cy="520" r="8" fill="#3a2010"/>
<rect x="562" y="528" width="12" height="30" rx="4" fill="#3a2010"/>
<circle cx="648" cy="515" r="8" fill="#2a1a08"/>
<rect x="642" y="523" width="12" height="30" rx="4" fill="#2a1a08"/>
<g transform="translate(378,338)"><rect x="-64" y="-22" width="128" height="42" rx="4" fill="#0a0a1ecc" stroke="#f0d78c55" stroke-width="1"/><text x="0" y="-4" text-anchor="middle" fill="#f0d78c" font-family="serif" font-size="15" font-weight="bold">喀什 · Kashgar</text><text x="0" y="16" text-anchor="middle" fill="#f0d78c88" font-family="serif" font-size="11">中西亚贸易中心 · 大巴扎</text></g>
<rect x="0" y="702" width="1024" height="50" fill="#0a0a1ecc"/><text x="512" y="730" text-anchor="middle" fill="#f0d78c" font-family="serif" font-size="24" font-weight="bold">喀什 · 丝路最大集市</text><text x="512" y="750" text-anchor="middle" fill="#f0d78c99" font-family="serif" font-size="13">多元文化交汇 · 维吾尔建筑与中亚商贸</text>
</svg>