<svg xmlns="http://www.w3.org/2000/svg" viewBox="0 0 1024 768" width="1024" height="768">
<defs>
  <linearGradient id="g33" x1="0" y1="0" x2="1" y2="1">
    <stop offset="0%" stop-color="#060818"/><stop offset="100%" stop-color="#0a1028"/>
  </linearGradient>
  <filter id="glow33"><feGaussianBlur stdDeviation="5" result="blur"/><feMerge><feMergeNode in="blur"/><feMergeNode in="SourceGraphic"/></feMerge></filter>
</defs>
<rect width="1024" height="768" fill="url(#g33)"/>
<circle cx="512" cy="338" r="198" fill="none" stroke="#2040a022" stroke-width="1"/>
<circle cx="512" cy="338" r="258" fill="none" stroke="#2040a015" stroke-width="1"/>
<circle cx="512" cy="338" r="288" fill="none" stroke="#2040a010" stroke-width="1"/>
<circle cx="200" cy="248" r="38" fill="#203060" opacity="0.6" stroke="#3060a0" stroke-width="1.5"/>
<text x="200" y="244" text-anchor="middle" fill="#6090d0" font-size="20">🛒</text>
<text x="200" y="262" text-anchor="middle" fill="#6090d0" font-family="serif" font-size="11">阿里巴巴</text>
<circle cx="780" cy="218" r="38" fill="#203060" opacity="0.6" stroke="#3060a0" stroke-width="1.5"/>
<text x="780" y="214" text-anchor="middle" fill="#6090d0" font-size="20">📦</text>
<text x="780" y="232" text-anchor="middle" fill="#6090d0" font-family="serif" font-size="11">Amazon</text>
<circle cx="148" cy="488" r="33" fill="#203060" opacity="0.6" stroke="#3060a0" stroke-width="1.5"/>
<text x="148" y="484" text-anchor="middle" fill="#6090d0" font-size="18">📱</text>
<text x="148" y="500" text-anchor="middle" fill="#6090d0" font-family="serif" font-size="10">移动支付</text>
<circle cx="868" cy="458" r="33" fill="#203060" opacity="0.6" stroke="#3060a0" stroke-width="1.5"/>
<text x="868" y="454" text-anchor="middle" fill="#6090d0" font-size="18">🚀</text>
<text x="868" y="470" text-anchor="middle" fill="#6090d0" font-family="serif" font-size="10">跨境物流</text>
<circle cx="388" cy="558" r="33" fill="#203060" opacity="0.6" stroke="#3060a0" stroke-width="1.5"/>
<text x="388" y="554" text-anchor="middle" fill="#6090d0" font-size="18">🌐</text>
<text x="388" y="570" text-anchor="middle" fill="#6090d0" font-family="serif" font-size="10">数字货币</text>
<circle cx="688" cy="548" r="33" fill="#203060" opacity="0.6" stroke="#3060a0" stroke-width="1.5"/>
<text x="688" y="544" text-anchor="middle" fill="#6090d0" font-size="18">📊</text>
<text x="688" y="560" text-anchor="middle" fill="#6090d0" font-family="serif" font-size="10">大数据贸易</text>
<path d="M238,248 Q350,285 480,338" stroke="#3060a066" stroke-width="2" fill="none" filter="url(#glow33)"/>
<path d="M742,218 Q640,278 548,338" stroke="#3060a066" stroke-width="2" fill="none" filter="url(#glow33)"/>
<path d="M178,488 Q310,428 476,338" stroke="#3060a066" stroke-width="2" fill="none" filter="url(#glow33)"/>
<path d="M835,458 Q710,408 548,338" stroke="#3060a066" stroke-width="2" fill="none" filter="url(#glow33)"/>
<path d="M420,555 Q464,448 512,338" stroke="#3060a066" stroke-width="2" fill="none" filter="url(#glow33)"/>
<path d="M655,548 Q588,448 512,338" stroke="#3060a066" stroke-width="2" fill="none" filter="url(#glow33)"/>
<circle cx="512" cy="338" r="48" fill="#1a2850" stroke="#4070c0" stroke-width="2"/>
<text x="512" y="333" text-anchor="middle" fill="#6090d0" font-size="26">🛍️</text>
<text x="512" y="355" text-anchor="middle" fill="#6090d0" font-family="serif" font-size="11">全球电商</text>
<g transform="translate(512,148)"><rect x="-118" y="-22" width="236" height="42" rx="4" fill="#0a0a1ecc" stroke="#f0d78c55" stroke-width="1"/><text x="0" y="-4" text-anchor="middle" fill="#f0d78c" font-family="serif" font-size="15" font-weight="bold">全球电商 · Global E-Commerce</text><text x="0" y="16" text-anchor="middle" fill="#f0d78c88" font-family="serif" font-size="11">数字丝绸之路 · 年交易额8万亿美元</text></g>
<rect x="0" y="702" width="1024" height="50" fill="#0a0a1ecc"/><text x="512" y="730" text-anchor="middle" fill="#f0d78c" font-family="serif" font-size="24" font-weight="bold">全球电商 · 数字化贸易革命</text><text x="512" y="750" text-anchor="middle" fill="#f0d78c99" font-family="serif" font-size="13">商队变成物流无人机 集市变成直播间</text>
</svg>