<svg xmlns="http://www.w3.org/2000/svg" viewBox="0 0 1024 768" width="1024" height="768">
<defs>
  <radialGradient id="mn16" cx="0.5" cy="0.5" r="0.5">
    <stop offset="0%" stop-color="#fffae0"/><stop offset="60%" stop-color="#f0e070"/><stop offset="100%" stop-color="#f0e07000"/>
  </radialGradient>
  <linearGradient id="g16" x1="0" y1="0" x2="0" y2="1">
    <stop offset="0%" stop-color="#000010"/><stop offset="50%" stop-color="#0a1030"/><stop offset="100%" stop-color="#1a2050"/>
  </linearGradient>
</defs>
<rect width="1024" height="768" fill="url(#g16)"/>
<circle cx="50" cy="40" r="2" fill="white" opacity="0.9"/>
<circle cx="120" cy="78" r="1.5" fill="white" opacity="0.7"/>
<circle cx="200" cy="28" r="2" fill="white" opacity="0.8"/>
<circle cx="320" cy="58" r="1.5" fill="white" opacity="0.6"/>
<circle cx="420" cy="23" r="2" fill="white" opacity="0.9"/>
<circle cx="550" cy="48" r="1.5" fill="white" opacity="0.7"/>
<circle cx="660" cy="33" r="2" fill="white" opacity="0.8"/>
<circle cx="780" cy="53" r="1.5" fill="white" opacity="0.6"/>
<circle cx="880" cy="28" r="2" fill="white" opacity="0.9"/>
<circle cx="960" cy="68" r="1.5" fill="white" opacity="0.7"/>
<circle cx="100" cy="148" r="1.5" fill="white" opacity="0.5"/>
<circle cx="280" cy="128" r="1.5" fill="white" opacity="0.6"/>
<circle cx="480" cy="108" r="1.5" fill="white" opacity="0.5"/>
<circle cx="720" cy="118" r="1.5" fill="white" opacity="0.6"/>
<circle cx="920" cy="138" r="1.5" fill="white" opacity="0.5"/>
<path d="M0,198 Q200,148 400,178 Q600,138 800,158 Q900,143 1024,168" stroke="white" stroke-width="28" fill="none" opacity="0.04"/>
<circle cx="850" cy="128" r="68" fill="url(#mn16)"/>
<circle cx="855" cy="122" r="53" fill="#fffae0" opacity="0.95"/>
<path d="M0,478 Q150,418 300,458 Q450,398 600,448 Q750,398 900,438 Q970,418 1024,433 L1024 768 L0 768Z" fill="#1a1208"/>
<path d="M0,518 Q200,478 400,508 Q600,468 800,498 Q900,478 1024,488 L1024 768 L0 768Z" fill="#2a1e10"/>
<path d="M0,568 Q250,538 500,558 Q750,533 1024,550 L1024 768 L0 768Z" fill="#3a2a18"/>
<g transform="translate(100,490) scale(0.9)"><ellipse cx="0" cy="0" rx="36" ry="20" fill="#1a1208"/><ellipse cx="-20" cy="-17" rx="10" ry="15" fill="#1a1208"/><ellipse cx="-24" cy="-33" rx="7" ry="10" fill="#1a1208"/><ellipse cx="6" cy="-10" rx="5" ry="11" fill="#1a1208"/><ellipse cx="15" cy="-5" rx="5" ry="11" fill="#1a1208"/><ellipse cx="24" cy="0" rx="5" ry="11" fill="#1a1208"/><ellipse cx="33" cy="5" rx="5" ry="11" fill="#1a1208"/></g>
<g transform="translate(280,478) scale(0.83)"><ellipse cx="0" cy="0" rx="36" ry="20" fill="#150e06"/><ellipse cx="-20" cy="-17" rx="10" ry="15" fill="#150e06"/><ellipse cx="-24" cy="-33" rx="7" ry="10" fill="#150e06"/><ellipse cx="6" cy="-10" rx="5" ry="11" fill="#150e06"/><ellipse cx="15" cy="-5" rx="5" ry="11" fill="#150e06"/><ellipse cx="24" cy="0" rx="5" ry="11" fill="#150e06"/></g>
<g transform="translate(460,488) scale(0.77)"><ellipse cx="0" cy="0" rx="34" ry="19" fill="#1a1208"/><ellipse cx="-19" cy="-15" rx="9" ry="14" fill="#1a1208"/><ellipse cx="-23" cy="-30" rx="6" ry="9" fill="#1a1208"/><ellipse cx="5" cy="-9" rx="5" ry="11" fill="#1a1208"/><ellipse cx="14" cy="-4" rx="5" ry="11" fill="#1a1208"/><ellipse cx="23" cy="0" rx="5" ry="11" fill="#1a1208"/></g>
<g transform="translate(640,482) scale(0.72)"><ellipse cx="0" cy="0" rx="34" ry="19" fill="#150e06"/><ellipse cx="-19" cy="-15" rx="9" ry="14" fill="#150e06"/><ellipse cx="-23" cy="-30" rx="6" ry="9" fill="#150e06"/><ellipse cx="5" cy="-9" rx="5" ry="11" fill="#150e06"/><ellipse cx="14" cy="-4" rx="5" ry="11" fill="#150e06"/></g>
<g transform="translate(810,476) scale(0.67)"><ellipse cx="0" cy="0" rx="33" ry="18" fill="#1a1208"/><ellipse cx="-18" cy="-14" rx="9" ry="13" fill="#1a1208"/><ellipse cx="-22" cy="-28" rx="6" ry="9" fill="#1a1208"/><ellipse cx="5" cy="-9" rx="5" ry="10" fill="#1a1208"/><ellipse cx="14" cy="-4" rx="5" ry="10" fill="#1a1208"/></g>
<text x="300" y="463" fill="#f0e09066" font-family="serif" font-size="20">♪ 驼铃声声</text>
<g transform="translate(512,428)"><rect x="-28" y="-22" width="56" height="42" rx="4" fill="#0a0a1ecc" stroke="#f0d78c55" stroke-width="1"/><text x="0" y="-4" text-anchor="middle" fill="#f0d78c" font-family="serif" font-size="15" font-weight="bold">大漠星空</text><text x="0" y="16" text-anchor="middle" fill="#f0d78c88" font-family="serif" font-size="11">商队夜行 · 以星辰导航</text></g>
<rect x="0" y="702" width="1024" height="50" fill="#0a0a1ecc"/><text x="512" y="730" text-anchor="middle" fill="#f0d78c" font-family="serif" font-size="24" font-weight="bold">大漠星空 · 驼铃声声夜行路</text><text x="512" y="750" text-anchor="middle" fill="#f0d78c99" font-family="serif" font-size="13">商队在星光下穿越塔克拉玛干大沙漠</text>
</svg>