<svg xmlns="http://www.w3.org/2000/svg" viewBox="0 0 1024 768" width="1024" height="768">
<defs>
  <radialGradient id="g22" cx="0.5" cy="0.5" r="0.7">
    <stop offset="0%" stop-color="#2a1a0a"/><stop offset="100%" stop-color="#0a0a18"/>
  </radialGradient>
  <linearGradient id="ag22" x1="0.5" y1="0" x2="0.5" y2="1">
    <stop offset="0%" stop-color="#f5d090" stop-opacity="0.6"/><stop offset="100%" stop-color="#f5d090" stop-opacity="0"/>
  </linearGradient>
</defs>
<rect width="1024" height="768" fill="url(#g22)"/>
<rect x="0" y="0" width="1024" height="768" fill="#1a0e05" opacity="0.7"/>
<ellipse cx="380" cy="348" rx="123" ry="163" fill="url(#ag22)"/>
<ellipse cx="640" cy="348" rx="123" ry="163" fill="url(#ag22)"/>
<g transform="translate(380,318)">
  <ellipse cx="0" cy="0" rx="42" ry="52" fill="#d4a05088"/>
  <ellipse cx="0" cy="-16" rx="19" ry="23" fill="#f5e0c0"/>
  <path d="M-32,-6 Q-52,-32 -37,-47" stroke="#f5d09088" stroke-width="2" fill="none"/>
  <path d="M32,-6 Q52,-32 37,-47" stroke="#f5d09088" stroke-width="2" fill="none"/>
  <path d="M-22,22 Q-42,52 -27,67" stroke="#f0c87088" stroke-width="2" fill="none"/>
  <path d="M22,22 Q42,52 27,67" stroke="#f0c87088" stroke-width="2" fill="none"/>
  <ellipse cx="0" cy="0" rx="16" ry="21" fill="#ffe8c0" opacity="0.5"/>
  <ellipse cx="0" cy="-42" rx="9" ry="7" fill="#fff0d0cc"/>
</g>
<g transform="translate(640,338)">
  <ellipse cx="0" cy="0" rx="40" ry="50" fill="#c8984088"/>
  <ellipse cx="0" cy="-13" rx="17" ry="21" fill="#f0d8b0"/>
  <path d="M-30,-4 Q-47,-30 -34,-42" stroke="#f0c87088" stroke-width="2" fill="none"/>
  <path d="M30,-4 Q47,-30 34,-42" stroke="#f0c87088" stroke-width="2" fill="none"/>
  <ellipse cx="0" cy="0" rx="15" ry="19" fill="#ffe0b0" opacity="0.5"/>
  <ellipse cx="0" cy="-37" rx="8" ry="6" fill="#fff0d0cc"/>
</g>
<text x="198" y="178" fill="#f5d09088" font-family="serif" font-size="19" transform="rotate(-15,198,178)">飞天伎乐</text>
<text x="748" y="198" fill="#f5d09088" font-family="serif" font-size="19" transform="rotate(12,748,198)">梵音缭绕</text>
<path d="M298,548 Q350,528 402,543 Q452,523 502,538 Q552,518 602,533 Q652,523 702,543" stroke="#d4a05044" stroke-width="1" fill="none"/>
<path d="M318,568 Q380,553 440,563 Q500,548 560,560 Q620,546 680,558" stroke="#c8984844" stroke-width="1" fill="none"/>
<rect x="248" y="558" width="528" height="42" rx="5" fill="#1a0a0544"/>
<text x="512" y="586" text-anchor="middle" fill="#f5d090cc" font-family="serif" font-size="23">敦煌壁画 · 飞天菩萨</text>
<g transform="translate(512,198)"><rect x="-37" y="-22" width="74" height="42" rx="4" fill="#0a0a1ecc" stroke="#f0d78c55" stroke-width="1"/><text x="0" y="-4" text-anchor="middle" fill="#f0d78c" font-family="serif" font-size="15" font-weight="bold">敦煌壁画艺术</text><text x="0" y="16" text-anchor="middle" fill="#f0d78c88" font-family="serif" font-size="11">公元4-14世纪 · 佛教艺术瑰宝</text></g>
<rect x="0" y="702" width="1024" height="50" fill="#0a0a1ecc"/><text x="512" y="730" text-anchor="middle" fill="#f0d78c" font-family="serif" font-size="24" font-weight="bold">敦煌莫高窟 · 飞天壁画</text><text x="512" y="750" text-anchor="middle" fill="#f0d78c99" font-family="serif" font-size="13">东西方文化与宗教融合的艺术巅峰</text>
</svg>