<svg xmlns="http://www.w3.org/2000/svg" viewBox="0 0 1024 768" width="1024" height="768">
<defs>
  <linearGradient id="g27" x1="0" y1="0" x2="0" y2="1">
    <stop offset="0%" stop-color="#1a2a4a"/><stop offset="50%" stop-color="#3a5a8a"/><stop offset="100%" stop-color="#6a8ab0"/>
  </linearGradient>
</defs>
<rect width="1024" height="768" fill="url(#g27)"/>
<path d="M0,498 Q200,468 400,488 Q600,458 800,478 Q900,465 1024,472 L1024,768 L0,768Z" fill="#8a7040"/>
<path d="M0,558 Q300,528 600,548 Q800,520 1024,538 L1024,768 L0,768Z" fill="#7a6030"/>
<path d="M0,628 Q300,598 600,618 Q800,590 1024,608 L1024,768 L0,768Z" fill="#6a5020"/>
<path d="M100,498 Q300,450 512,468 Q700,448 900,460" stroke="#a0904077" stroke-width="4" fill="none"/>
<text x="512" y="455" text-anchor="middle" fill="#f0d08066" font-family="serif" font-size="14">向西行进的路途</text>
<circle cx="145" cy="498" r="12" fill="#d4a050" opacity="0.8"/>
<text x="145" y="530" text-anchor="middle" fill="#f0d08088" font-family="serif" font-size="12">长安</text>
<circle cx="390" cy="478" r="10" fill="#d4a050" opacity="0.7"/>
<text x="390" y="510" text-anchor="middle" fill="#f0d08077" font-family="serif" font-size="11">河西走廊</text>
<circle cx="588" cy="468" r="10" fill="#d4a050" opacity="0.7"/>
<text x="588" y="500" text-anchor="middle" fill="#f0d08077" font-family="serif" font-size="11">大宛</text>
<circle cx="808" cy="460" r="10" fill="#d4a050" opacity="0.7"/>
<text x="808" y="492" text-anchor="middle" fill="#f0d08077" font-family="serif" font-size="11">大月氏</text>
<g transform="translate(512,418)">
  <circle cx="0" cy="-70" r="18" fill="#d4a080"/>
  <rect x="-10" y="-52" width="20" height="48" rx="5" fill="#d44020"/>
  <rect x="-8" y="0" width="16" height="38" rx="4" fill="#a03010"/>
  <rect x="-50" y="-35" width="48" height="8" rx="3" fill="#6a4820"/>
  <circle cx="-50" cy="-31" r="5" fill="#c8a030"/>
</g>
<g transform="translate(412,428)">
  <circle cx="0" cy="-60" r="15" fill="#c8906a"/>
  <rect x="-8" y="-45" width="18" height="42" rx="4" fill="#8a3010"/>
  <rect x="-7" y="-3" width="14" height="32" rx="3" fill="#6a2808"/>
</g>
<g transform="translate(612,422)">
  <circle cx="0" cy="-62" r="15" fill="#d4a080"/>
  <rect x="-8" y="-47" width="18" height="44" rx="4" fill="#d03020"/>
  <rect x="-7" y="-3" width="14" height="34" rx="3" fill="#a02010"/>
</g>
<rect x="300" y="250" width="424" height="158" rx="8" fill="#1a1a2ecc" stroke="#f0d06055" stroke-width="2"/>
<text x="512" y="290" text-anchor="middle" fill="#f0d78c" font-family="serif" font-size="20" font-weight="bold">张骞出使西域</text>
<text x="512" y="318" text-anchor="middle" fill="#f0d08099" font-family="serif" font-size="14">公元前138年 汉武帝派遣张骞</text>
<text x="512" y="340" text-anchor="middle" fill="#f0d08099" font-family="serif" font-size="14">出使大月氏 寻求军事同盟</text>
<text x="512" y="368" text-anchor="middle" fill="#f0d080bb" font-family="serif" font-size="14">历时十三年 带回西域信息</text>
<text x="512" y="392" text-anchor="middle" fill="#d4a06099" font-family="serif" font-size="13">正式开辟了丝绸之路</text>
<g transform="translate(512,248)"><rect x="-86" y="-22" width="173" height="42" rx="4" fill="#0a0a1ecc" stroke="#f0d78c55" stroke-width="1"/><text x="0" y="-4" text-anchor="middle" fill="#f0d78c" font-family="serif" font-size="15" font-weight="bold">张骞出使 · Zhang Qian</text><text x="0" y="16" text-anchor="middle" fill="#f0d78c88" font-family="serif" font-size="11">公元前138年 · 丝路奠基之旅</text></g>
<rect x="0" y="702" width="1024" height="50" fill="#0a0a1ecc"/><text x="512" y="730" text-anchor="middle" fill="#f0d78c" font-family="serif" font-size="24" font-weight="bold">张骞出使西域 · 丝路开辟</text><text x="512" y="750" text-anchor="middle" fill="#f0d78c99" font-family="serif" font-size="13">凿空西域 开启了中西方文明交流的大门</text>
</svg>