<svg xmlns="http://www.w3.org/2000/svg" viewBox="0 0 1024 768" width="1024" height="768">
  <defs>
    <linearGradient id="sky2" x1="0" y1="0" x2="0" y2="1">
      <stop offset="0%" stop-color="#87CEEB"/>
      <stop offset="60%" stop-color="#d4e8f0"/>
      <stop offset="100%" stop-color="#f5ecd0"/>
    </linearGradient>
    <linearGradient id="roof" x1="0" y1="0" x2="0" y2="1">
      <stop offset="0%" stop-color="#8B4513"/>
      <stop offset="100%" stop-color="#5C2D0A"/>
    </linearGradient>
  </defs>
  <rect width="1024" height="768" fill="url(#sky2)"/>
  
  <rect x="0" y="450" width="1024" height="318" fill="#d4b070"/>
  <rect x="0" y="500" width="1024" height="268" fill="#c09860"/>
  
  <rect x="100" y="300" width="200" height="200" fill="#e8d5b0" stroke="#8B6914" stroke-width="2"/>
  <polygon points="80,300 200,220 320,300" fill="url(#roof)" stroke="#4a2500" stroke-width="2"/>
  <rect x="150" y="340" width="100" height="60" fill="#4a2500" opacity="0.7"/>
  <text x="200" y="370" text-anchor="middle" fill="#f5d090" font-size="14">丝绸锦缎</text>
  
  <rect x="400" y="280" width="240" height="220" fill="#eadcc0" stroke="#8B6914" stroke-width="2"/>
  <polygon points="380,280 520,190 660,280" fill="url(#roof)" stroke="#4a2500" stroke-width="2"/>
  <rect x="440" y="330" width="160" height="60" fill="#4a2500" opacity="0.7"/>
  <text x="520" y="365" text-anchor="middle" fill="#f5d090" font-size="14">陶瓷 · 香料 · 珠宝</text>
  
  <rect x="730" y="310" width="180" height="190" fill="#e5d0a0" stroke="#8B6914" stroke-width="2"/>
  <polygon points="710,310 820,240 930,310" fill="url(#roof)" stroke="#4a2500" stroke-width="2"/>
  
  <g transform="translate(120,400)">
    <circle cx="0" cy="0" r="12" fill="#d4a050"/>
    <circle cx="30" cy="-10" r="12" fill="#e0b060"/>
    <circle cx="55" cy="5" r="12" fill="#c89848"/>
    <circle cx="80" cy="-5" r="12" fill="#e8c070"/>
  </g>
  <g transform="translate(500,420)">
    <circle cx="0" cy="0" r="10" fill="#d4a050"/>
    <circle cx="25" cy="5" r="10" fill="#e0b060"/>
    <circle cx="50" cy="-8" r="10" fill="#c89848"/>
  </g>
  <g transform="translate(760,430)">
    <circle cx="0" cy="0" r="10" fill="#e0b060"/>
    <circle cx="28" cy="-5" r="10" fill="#d4a050"/>
  </g>
  
  <text x="512" y="740" text-anchor="middle" fill="#4a2500cc" font-family="serif" font-size="28">丝路集市 · 商贾云集</text>
</svg>