<svg xmlns="http://www.w3.org/2000/svg" viewBox="0 0 1024 768" width="1024" height="768">
<defs>
  <linearGradient id="g20" x1="0" y1="0" x2="0" y2="1">
    <stop offset="0%" stop-color="#1a3a2a"/><stop offset="40%" stop-color="#2a5a4a"/><stop offset="70%" stop-color="#4a8a6a"/><stop offset="100%" stop-color="#8ab0a0"/>
  </linearGradient>
</defs>
<rect width="1024" height="768" fill="url(#g20)"/>
<path d="M0,298 Q150,198 300,258 Q450,158 600,238 Q750,158 900,218 Q960,193 1024,213 L1024,498 L0,498Z" fill="#3a5a3a" opacity="0.7"/>
<path d="M150,258 Q200,196 250,258" fill="white" opacity="0.7"/>
<path d="M550,238 Q600,158 650,238" fill="white" opacity="0.78"/>
<path d="M850,218 Q900,158 950,218" fill="white" opacity="0.7"/>
<path d="M0,348 Q200,268 400,318 Q600,248 800,298 Q900,268 1024,283 L1024,498 L0,498Z" fill="#4a6a4a" opacity="0.6"/>
<rect x="0" y="308" width="1024" height="18" fill="#a0c8b8" opacity="0.22"/>
<rect x="0" y="358" width="1024" height="14" fill="#a0c8b8" opacity="0.18"/>
<path d="M0,548 Q150,518 300,538 Q450,508 550,528 Q650,503 800,518 Q900,506 1024,513" stroke="#6a5030" stroke-width="8" fill="none"/>
<path d="M0,548 Q150,518 300,538 Q450,508 550,528 Q650,503 800,518 Q900,506 1024,513" stroke="#8a7050" stroke-width="4" fill="none" stroke-dasharray="15,8"/>
<g transform="translate(278,506)"><circle cx="0" cy="-55" r="13" fill="#3a2010"/><rect x="-7" y="-42" width="15" height="38" rx="4" fill="#4a2a10"/><rect x="-5" y="-4" width="11" height="28" rx="3" fill="#3a2010"/><rect x="-21" y="-55" width="19" height="52" rx="4" fill="#6a4820" stroke="#4a3010" stroke-width="1"/><path d="M-21,-55 L-8,-65 L3,-55" stroke="#4a3010" stroke-width="2" fill="#7a5830"/></g>
<g transform="translate(448,513)"><circle cx="0" cy="-51" r="11" fill="#2a1808"/><rect x="-6" y="-40" width="13" height="36" rx="4" fill="#3a2010"/><rect x="-5" y="-4" width="10" height="26" rx="3" fill="#2a1808"/><rect x="-19" y="-51" width="18" height="47" rx="4" fill="#6a4820" stroke="#4a3010" stroke-width="1"/><path d="M-19,-51 L-7,-61 L2,-51" stroke="#4a3010" stroke-width="2" fill="#7a5830"/></g>
<g transform="translate(648,508) scale(0.78)"><ellipse cx="0" cy="0" rx="38" ry="19" fill="#4a3010"/><ellipse cx="-20" cy="-16" rx="10" ry="15" fill="#4a3010"/><ellipse cx="-24" cy="-30" rx="6" ry="9" fill="#4a3010"/><ellipse cx="6" cy="-10" rx="5" ry="11" fill="#3a2808"/><ellipse cx="16" cy="-5" rx="5" ry="11" fill="#3a2808"/><ellipse cx="26" cy="0" rx="5" ry="11" fill="#3a2808"/><ellipse cx="36" cy="5" rx="5" ry="11" fill="#3a2808"/><rect x="-12" y="-35" width="28" height="22" rx="3" fill="#8a6030"/></g>
<circle cx="148" cy="488" r="31" fill="#2a5a20" opacity="0.8"/>
<circle cx="128" cy="503" r="23" fill="#3a6a28" opacity="0.8"/>
<circle cx="168" cy="498" r="26" fill="#2a5a20" opacity="0.8"/>
<rect x="143" y="508" width="11" height="31" fill="#3a2010"/>
<path d="M848,428 Q858,408 868,428 Q878,408 888,428 Q898,408 908,428 Q918,408 928,428 Q938,408 948,428" stroke="#8a6020" stroke-width="2" fill="none"/>
<rect x="849" y="408" width="19" height="19" fill="#c02020" opacity="0.7"/>
<rect x="869" y="408" width="19" height="19" fill="#f0c020" opacity="0.7"/>
<rect x="889" y="408" width="19" height="19" fill="#f0f0f0" opacity="0.7"/>
<rect x="909" y="408" width="19" height="19" fill="#2060c0" opacity="0.7"/>
<rect x="929" y="408" width="19" height="19" fill="#20a020" opacity="0.7"/>
<g transform="translate(512,348)"><rect x="-104" y="-22" width="209" height="42" rx="4" fill="#0a0a1ecc" stroke="#f0d78c55" stroke-width="1"/><text x="0" y="-4" text-anchor="middle" fill="#f0d78c" font-family="serif" font-size="15" font-weight="bold">茶马古道 · Tea Horse Road</text><text x="0" y="16" text-anchor="middle" fill="#f0d78c88" font-family="serif" font-size="11">云南普洱茶 → 西藏</text></g>
<rect x="0" y="702" width="1024" height="50" fill="#0a0a1ecc"/><text x="512" y="730" text-anchor="middle" fill="#f0d78c" font-family="serif" font-size="24" font-weight="bold">茶马古道 · 另一条丝绸之路</text><text x="512" y="750" text-anchor="middle" fill="#f0d78c99" font-family="serif" font-size="13">普洱茶与战马的千年贸易 穿越横断山脉</text>
</svg>