<svg xmlns="http://www.w3.org/2000/svg" viewBox="0 0 1024 768" width="1024" height="768">
<defs>
  <linearGradient id="left37" x1="0" y1="0" x2="1" y2="0">
    <stop offset="0%" stop-color="#2a1508"/><stop offset="100%" stop-color="#1a0a04"/>
  </linearGradient>
  <linearGradient id="right37" x1="0" y1="0" x2="1" y2="0">
    <stop offset="0%" stop-color="#080818"/><stop offset="100%" stop-color="#040812"/>
  </linearGradient>
  <filter id="glow37"><feGaussianBlur stdDeviation="5" result="blur"/><feMerge><feMergeNode in="blur"/><feMergeNode in="SourceGraphic"/></feMerge></filter>
</defs>
<rect x="0" y="0" width="512" height="768" fill="url(#left37)"/>
<rect x="512" y="0" width="512" height="768" fill="url(#right37)"/>
<line x1="512" y1="0" x2="512" y2="768" stroke="#f0d060" stroke-width="2" opacity="0.3"/>
<text x="256" y="88" text-anchor="middle" fill="#c89040" font-family="serif" font-size="18" opacity="0.7">古代丝绸之路</text>
<text x="768" y="88" text-anchor="middle" fill="#4080c0" font-family="serif" font-size="18" opacity="0.7">数字丝绸之路</text>
<path d="M0,478 Q100,438 200,458 Q300,428 380,448 Q430,438 512,443" stroke="#c89040" stroke-width="2.5" fill="none" opacity="0.6" stroke-dasharray="8,5"/>
<circle cx="80" cy="458" r="5" fill="#c89040" opacity="0.7"/>
<circle cx="200" cy="448" r="5" fill="#c89040" opacity="0.7"/>
<circle cx="320" cy="438" r="5" fill="#c89040" opacity="0.7"/>
<g transform="translate(80,458) scale(0.55)"><ellipse cx="0" cy="0" rx="36" ry="19" fill="#8B6914" opacity="0.8"/><ellipse cx="-19" cy="-15" rx="10" ry="14" fill="#8B6914" opacity="0.8"/><ellipse cx="-23" cy="-29" rx="6" ry="9" fill="#8B6914" opacity="0.8"/><ellipse cx="5" cy="-9" rx="5" ry="10" fill="#7a5a10" opacity="0.8"/><ellipse cx="14" cy="-4" rx="5" ry="10" fill="#7a5a10" opacity="0.8"/><ellipse cx="23" cy="1" rx="5" ry="10" fill="#7a5a10" opacity="0.8"/></g>
<g transform="translate(200,448) scale(0.48)"><ellipse cx="0" cy="0" rx="34" ry="18" fill="#9B7924" opacity="0.8"/><ellipse cx="-18" cy="-14" rx="9" ry="13" fill="#9B7924" opacity="0.8"/><ellipse cx="-22" cy="-27" rx="6" ry="8" fill="#9B7924" opacity="0.8"/><ellipse cx="5" cy="-8" rx="5" ry="10" fill="#8a6820" opacity="0.8"/><ellipse cx="14" cy="-3" rx="5" ry="10" fill="#8a6820" opacity="0.8"/></g>
<path d="M512,443 Q600,428 680,438 Q760,425 840,432 Q900,428 970,435" stroke="#4080c0" stroke-width="2.5" fill="none" opacity="0.7" filter="url(#glow37)"/>
<circle cx="600" cy="435" r="5" fill="#4080c0" opacity="0.8"/>
<circle cx="720" cy="430" r="5" fill="#4080c0" opacity="0.8"/>
<circle cx="840" cy="432" r="5" fill="#4080c0" opacity="0.8"/>
<text x="600" y="418" text-anchor="middle" fill="#4080c0" font-family="serif" font-size="10">数据节点</text>
<text x="720" y="413" text-anchor="middle" fill="#4080c0" font-family="serif" font-size="10">云服务器</text>
<text x="840" y="415" text-anchor="middle" fill="#4080c0" font-family="serif" font-size="10">终端用户</text>
<rect x="38" y="168" width="440" height="245" rx="5" fill="#1a0a0488" stroke="#c8904044" stroke-width="1"/>
<text x="258" y="202" text-anchor="middle" fill="#c89040" font-family="serif" font-size="14">骆驼载货量: 200公斤</text>
<text x="258" y="228" text-anchor="middle" fill="#c89040" font-family="serif" font-size="14">长安→罗马: 约1-2年</text>
<text x="258" y="254" text-anchor="middle" fill="#c89040" font-family="serif" font-size="14">商队人数: 数百人</text>
<text x="258" y="280" text-anchor="middle" fill="#c89040" font-family="serif" font-size="14">危险: 强盗、沙漠、疾病</text>
<text x="258" y="306" text-anchor="middle" fill="#c89040" font-family="serif" font-size="14">货物: 丝绸、瓷器、香料</text>
<text x="258" y="332" text-anchor="middle" fill="#c89040" font-family="serif" font-size="14">利润率: 50倍以上</text>
<text x="258" y="390" text-anchor="middle" fill="#c89040aa" font-family="serif" font-size="17" font-weight="bold">古代</text>
<rect x="546" y="168" width="440" height="245" rx="5" fill="#04081888" stroke="#4080c044" stroke-width="1"/>
<text x="766" y="202" text-anchor="middle" fill="#4080c0" font-family="serif" font-size="14">数据传输: 太比特/秒</text>
<text x="766" y="228" text-anchor="middle" fill="#4080c0" font-family="serif" font-size="14">上海→伦敦: 0.2秒</text>
<text x="766" y="254" text-anchor="middle" fill="#4080c0" font-family="serif" font-size="14">用户数量: 50亿+人</text>
<text x="766" y="280" text-anchor="middle" fill="#4080c0" font-family="serif" font-size="14">风险: 网络攻击、数据安全</text>
<text x="766" y="306" text-anchor="middle" fill="#4080c0" font-family="serif" font-size="14">货物: 信息、文化、服务</text>
<text x="766" y="332" text-anchor="middle" fill="#4080c0" font-family="serif" font-size="14">全球贸易额: 28万亿美元</text>
<text x="766" y="390" text-anchor="middle" fill="#4080c0aa" font-family="serif" font-size="17" font-weight="bold">今天</text>
<rect x="168" y="568" width="688" height="65" rx="5" fill="#08081888" stroke="#f0d06033" stroke-width="1"/>
<text x="512" y="600" text-anchor="middle" fill="#f0d78c" font-family="serif" font-size="18" font-weight="bold">文明连接 · 从未停止</text>
<text x="512" y="622" text-anchor="middle" fill="#f0d08099" font-family="serif" font-size="13">技术在变 · 人类渴望连接的心 · 从未改变</text>
<g transform="translate(512,148)"><rect x="-64" y="-22" width="128" height="42" rx="4" fill="#0a0a1ecc" stroke="#f0d78c55" stroke-width="1"/><text x="0" y="-4" text-anchor="middle" fill="#f0d78c" font-family="serif" font-size="15" font-weight="bold">古代丝路 VS 数字丝路</text><text x="0" y="16" text-anchor="middle" fill="#f0d78c88" font-family="serif" font-size="11">两千年的连接进化史</text></g>
<rect x="0" y="702" width="1024" height="50" fill="#0a0a1ecc"/><text x="512" y="730" text-anchor="middle" fill="#f0d78c" font-family="serif" font-size="24" font-weight="bold">古代 VS 数字 · 文明连接的进化</text><text x="512" y="750" text-anchor="middle" fill="#f0d78c99" font-family="serif" font-size="13">从驼铃到光纤 连接的本质始终是人与人</text>
</svg>