<svg xmlns="http://www.w3.org/2000/svg" viewBox="0 0 1024 768" width="1024" height="768">
  <defs>
    <linearGradient id="bg6" x1="0" y1="0" x2="1" y2="1">
      <stop offset="0%" stop-color="#0a0a2e"/>
      <stop offset="50%" stop-color="#1a0a3e"/>
      <stop offset="100%" stop-color="#0a1a2e"/>
    </linearGradient>
    <filter id="glow6">
      <feGaussianBlur stdDeviation="4"/>
      <feMerge><feMergeNode/><feMergeNode in="SourceGraphic"/></feMerge>
    </filter>
    <filter id="glowStrong">
      <feGaussianBlur stdDeviation="6"/>
      <feMerge><feMergeNode/><feMergeNode in="SourceGraphic"/></feMerge>
    </filter>
  </defs>
  <rect width="1024" height="768" fill="url(#bg6)"/>
  
  <circle cx="512" cy="384" r="200" fill="none" stroke="#2030a044" stroke-width="1"/>
  <circle cx="512" cy="384" r="280" fill="none" stroke="#2030a033" stroke-width="1"/>
  <circle cx="200" cy="250" r="40" fill="#3040c022" stroke="#4060d044" stroke-width="1"/>
  <circle cx="200" cy="250" r="8" fill="#6080ffcc" filter="url(#glowStrong)"/>
  
  <circle cx="750" cy="180" r="40" fill="#3040c022" stroke="#4060d044" stroke-width="1"/>
  <circle cx="750" cy="180" r="8" fill="#6080ffcc" filter="url(#glowStrong)"/>
  
  <circle cx="350" cy="500" r="40" fill="#3040c022" stroke="#4060d044" stroke-width="1"/>
  <circle cx="350" cy="500" r="8" fill="#6080ffcc" filter="url(#glowStrong)"/>
  
  <circle cx="700" cy="550" r="40" fill="#3040c022" stroke="#4060d044" stroke-width="1"/>
  <circle cx="700" cy="550" r="8" fill="#6080ffcc" filter="url(#glowStrong)"/>
  
  <circle cx="500" cy="150" r="40" fill="#3040c022" stroke="#4060d044" stroke-width="1"/>
  <circle cx="500" cy="150" r="8" fill="#6080ffcc" filter="url(#glowStrong)"/>
  
  <circle cx="850" cy="400" r="40" fill="#3040c022" stroke="#4060d044" stroke-width="1"/>
  <circle cx="850" cy="400" r="8" fill="#6080ffcc" filter="url(#glowStrong)"/>
  
  <path d="M200,250 Q350,200 500,150" stroke="#4060d066" stroke-width="2" fill="none" filter="url(#glow6)"/>
  <path d="M500,150 Q620,160 750,180" stroke="#4060d066" stroke-width="2" fill="none" filter="url(#glow6)"/>
  <path d="M350,500 Q400,420 500,150" stroke="#4060d066" stroke-width="2" fill="none" filter="url(#glow6)"/>
  <path d="M200,250 Q270,380 350,500" stroke="#4060d066" stroke-width="2" fill="none" filter="url(#glow6)"/>
  <path d="M700,550 Q780,480 850,400" stroke="#4060d066" stroke-width="2" fill="none" filter="url(#glow6)"/>
  <path d="M750,180 Q800,300 850,400" stroke="#4060d066" stroke-width="2" fill="none" filter="url(#glow6)"/>
  <path d="M350,500 Q520,530 700,550" stroke="#4060d066" stroke-width="2" fill="none" filter="url(#glow6)"/>
  
  <text x="512" y="650" text-anchor="middle" fill="#6080ffcc" font-family="serif" font-size="26">数字丝绸之路</text>
  <text x="512" y="700" text-anchor="middle" fill="#4060d0aa" font-family="serif" font-size="18">AI · 5G · 区块链 · 数字贸易</text>
  
  <rect x="300" y="715" width="424" height="3" rx="1" fill="#4060d044"/>
  <text x="512" y="745" text-anchor="middle" fill="#4060d088" font-family="serif" font-size="16">从驼铃古道到数字网络 · 文明连接从未止步</text>
</svg>