<svg xmlns="http://www.w3.org/2000/svg" viewBox="0 0 1024 768" width="1024" height="768">
  <defs>
    <linearGradient id="sky" x1="0" y1="0" x2="0" y2="1">
      <stop offset="0%" stop-color="#1a0a2e"/>
      <stop offset="40%" stop-color="#d4451a"/>
      <stop offset="70%" stop-color="#f0a040"/>
      <stop offset="100%" stop-color="#f5d060"/>
    </linearGradient>
    <linearGradient id="sand" x1="0" y1="0" x2="0" y2="1">
      <stop offset="0%" stop-color="#d4a050"/>
      <stop offset="100%" stop-color="#8b5e3c"/>
    </linearGradient>
    <radialGradient id="sun" cx="0.5" cy="0.5" r="0.5">
      <stop offset="0%" stop-color="#fff8e0"/>
      <stop offset="30%" stop-color="#ffe080"/>
      <stop offset="70%" stop-color="#ff88003a"/>
      <stop offset="100%" stop-color="#ff880000"/>
    </radialGradient>
  </defs>
  <rect width="1024" height="768" fill="url(#sky)"/>
  <circle cx="512" cy="380" r="200" fill="url(#sun)" opacity="0.8"/>
  <ellipse cx="512" cy="280" r="80" ry="70" fill="#fff4d0" opacity="0.9"/>
  <path d="M0 500 Q200 460 350 490 Q500 440 650 480 Q800 450 1024 490 L1024 768 L0 768Z" fill="#c89848"/>
  <path d="M0 540 Q180 510 380 535 Q580 490 750 530 Q900 500 1024 520 L1024 768 L0 768Z" fill="url(#sand)"/>
  <path d="M0 600 Q250 570 500 590 Q750 560 1024 580 L1024 768 L0 768Z" fill="#7a4f30"/>
  
  <g transform="translate(180,420)">
    <g id="camel1">
      <ellipse cx="0" cy="0" rx="35" ry="20" fill="#8B6914"/>
      <ellipse cx="-20" cy="-15" rx="10" ry="15" fill="#8B6914"/>
      <ellipse cx="-25" cy="-30" rx="6" ry="10" fill="#8B6914"/>
      <rect x="-4" y="-45" width="3" height="15" fill="#6B4914"/>
      <rect x="-4" y="-45" width="14" height="3" fill="#6B4914"/>
      <ellipse cx="5" cy="-10" rx="5" ry="12" fill="#7a5a10"/>
      <ellipse cx="12" cy="-5" rx="5" ry="12" fill="#7a5a10"/>
      <ellipse cx="19" cy="0" rx="5" ry="12" fill="#7a5a10"/>
      <ellipse cx="26" cy="5" rx="5" ry="12" fill="#7a5a10"/>
      <rect x="-30" y="-20" width="15" height="25" rx="3" fill="#d4a050cc" stroke="#8B6914" stroke-width="1"/>
    </g>
  </g>
  
  <g transform="translate(320,400)">
    <g id="camel2">
      <ellipse cx="0" cy="0" rx="38" ry="22" fill="#9B7924"/>
      <ellipse cx="-22" cy="-18" rx="12" ry="17" fill="#9B7924"/>
      <ellipse cx="-28" cy="-35" rx="7" ry="12" fill="#9B7924"/>
      <rect x="-6" y="-52" width="3" height="17" fill="#5B3904"/>
      <rect x="-6" y="-52" width="16" height="3" fill="#5B3904"/>
      <ellipse cx="6" cy="-12" rx="6" ry="13" fill="#8a6a20"/>
      <ellipse cx="14" cy="-6" rx="6" ry="13" fill="#8a6a20"/>
      <ellipse cx="22" cy="0" rx="6" ry="13" fill="#8a6a20"/>
      <ellipse cx="30" cy="6" rx="6" ry="13" fill="#8a6a20"/>
      <rect x="-32" y="-22" width="16" height="28" rx="3" fill="#e0b060cc" stroke="#9B7924" stroke-width="1"/>
    </g>
  </g>
  
  <g transform="translate(460,430)">
    <g id="camel3" transform="scale(0.85)">
      <ellipse cx="0" cy="0" rx="35" ry="20" fill="#6B5914"/>
      <ellipse cx="-20" cy="-15" rx="10" ry="15" fill="#6B5914"/>
      <ellipse cx="-25" cy="-30" rx="6" ry="10" fill="#6B5914"/>
      <rect x="-4" y="-45" width="3" height="15" fill="#3B2904"/>
      <rect x="-4" y="-45" width="14" height="3" fill="#3B2904"/>
      <ellipse cx="5" cy="-10" rx="5" ry="12" fill="#5a4910"/>
      <ellipse cx="12" cy="-5" rx="5" ry="12" fill="#5a4910"/>
      <ellipse cx="19" cy="0" rx="5" ry="12" fill="#5a4910"/>
      <ellipse cx="26" cy="5" rx="5" ry="12" fill="#5a4910"/>
    </g>
  </g>
  
  <text x="512" y="740" text-anchor="middle" fill="#fff8e0cc" font-family="serif" font-size="28">沙漠驼队 · 黄昏行旅</text>
</svg>