<svg xmlns="http://www.w3.org/2000/svg" viewBox="0 0 1024 768" width="1024" height="768">
<defs>
  <linearGradient id="g3" x1="0" y1="0" x2="0" y2="1">
    <stop offset="0%" stop-color="#1a0a2e"/><stop offset="45%" stop-color="#c84010"/><stop offset="72%" stop-color="#f0a030"/><stop offset="100%" stop-color="#f5c860"/>
  </linearGradient>
  <linearGradient id="sg3" x1="0" y1="0" x2="0" y2="1">
    <stop offset="0%" stop-color="#d4a040"/><stop offset="100%" stop-color="#8b5e2c"/>
  </linearGradient>
</defs>
<rect width="1024" height="768" fill="url(#g3)"/>
<circle cx="512" cy="340" r="160" fill="#ff9030" opacity="0.3"/>
<ellipse cx="512" cy="250" rx="68" ry="58" fill="#fff4c0" opacity="0.95"/>
<path d="M0 505 Q200 458 380 488 Q540 440 680 478 Q820 445 1024 468 L1024 768 L0 768Z" fill="#c89040"/>
<path d="M0 550 Q220 505 420 535 Q620 488 820 520 Q920 502 1024 512 L1024 768 L0 768Z" fill="url(#sg3)"/>
<path d="M0 615 Q300 578 560 598 Q760 562 1024 578 L1024 768 L0 768Z" fill="#7a4a28"/>
<rect x="55" y="375" width="335" height="162" fill="#c8a050" stroke="#a07830" stroke-width="2"/>
<rect x="70" y="385" width="62" height="82" fill="#2a1a0a"/>
<rect x="152" y="385" width="62" height="82" fill="#2a1a0a"/>
<rect x="234" y="385" width="62" height="82" fill="#2a1a0a"/>
<rect x="316" y="385" width="60" height="82" fill="#2a1a0a"/>
<ellipse cx="101" cy="426" rx="21" ry="26" fill="#f5c060" opacity="0.35"/>
<ellipse cx="183" cy="426" rx="21" ry="26" fill="#f5c060" opacity="0.35"/>
<ellipse cx="265" cy="426" rx="21" ry="26" fill="#f5c060" opacity="0.35"/>
<g transform="translate(600,505)"><g transform="scale(0.78,0.78)">
  <ellipse cx="0" cy="0" rx="38" ry="21" fill="#8B6914"/>
  <ellipse cx="-20" cy="-17" rx="11" ry="16" fill="#8B6914"/>
  <ellipse cx="-25" cy="-33" rx="7" ry="11" fill="#8B6914"/>
  <ellipse cx="7" cy="-11" rx="5" ry="12" fill="#7a5a10"/>
  <ellipse cx="17" cy="-6" rx="5" ry="12" fill="#7a5a10"/>
  <ellipse cx="27" cy="-1" rx="5" ry="12" fill="#7a5a10"/>
  <ellipse cx="37" cy="5" rx="5" ry="12" fill="#7a5a10"/>
</g></g>
<g transform="translate(740,497)"><g transform="scale(0.67,0.67)">
  <ellipse cx="0" cy="0" rx="38" ry="21" fill="#8B6914"/>
  <ellipse cx="-20" cy="-17" rx="11" ry="16" fill="#8B6914"/>
  <ellipse cx="-25" cy="-33" rx="7" ry="11" fill="#8B6914"/>
  <ellipse cx="7" cy="-11" rx="5" ry="12" fill="#7a5a10"/>
  <ellipse cx="17" cy="-6" rx="5" ry="12" fill="#7a5a10"/>
  <ellipse cx="27" cy="-1" rx="5" ry="12" fill="#7a5a10"/>
  <ellipse cx="37" cy="5" rx="5" ry="12" fill="#7a5a10"/>
</g></g>
<g transform="translate(870,508)"><g transform="scale(0.58,0.58)">
  <ellipse cx="0" cy="0" rx="38" ry="21" fill="#8B6914"/>
  <ellipse cx="-20" cy="-17" rx="11" ry="16" fill="#8B6914"/>
  <ellipse cx="-25" cy="-33" rx="7" ry="11" fill="#8B6914"/>
  <ellipse cx="7" cy="-11" rx="5" ry="12" fill="#7a5a10"/>
  <ellipse cx="17" cy="-6" rx="5" ry="12" fill="#7a5a10"/>
  <ellipse cx="27" cy="-1" rx="5" ry="12" fill="#7a5a10"/>
  <ellipse cx="37" cy="5" rx="5" ry="12" fill="#7a5a10"/>
</g></g>
<g transform="translate(220,355)"><rect x="-68" y="-22" width="137" height="42" rx="4" fill="#0a0a1ecc" stroke="#f0d78c55" stroke-width="1"/><text x="0" y="-4" text-anchor="middle" fill="#f0d78c" font-family="serif" font-size="15" font-weight="bold">敦煌 · Dunhuang</text><text x="0" y="16" text-anchor="middle" fill="#f0d78c88" font-family="serif" font-size="11">丝路要冲 · 莫高窟 735个洞窟</text></g>
<rect x="0" y="702" width="1024" height="50" fill="#0a0a1ecc"/><text x="512" y="730" text-anchor="middle" fill="#f0d78c" font-family="serif" font-size="24" font-weight="bold">敦煌莫高窟 · 大漠中的文明绿洲</text><text x="512" y="750" text-anchor="middle" fill="#f0d78c99" font-family="serif" font-size="13">公元4-14世纪 · 世界文化遗产 · 东西方艺术交汇</text>
</svg>