<svg xmlns="http://www.w3.org/2000/svg" viewBox="0 0 1024 768" width="1024" height="768">
  <defs>
    <linearGradient id="bg5" x1="0" y1="0" x2="0" y2="1">
      <stop offset="0%" stop-color="#f5efe0"/>
      <stop offset="100%" stop-color="#d4c8b0"/>
    </linearGradient>
    <radialGradient id="porcelain" cx="0.5" cy="0.5" r="0.5">
      <stop offset="0%" stop-color="#ffffff"/>
      <stop offset="70%" stop-color="#e8f0f8"/>
      <stop offset="100%" stop-color="#c0d0e0"/>
    </radialGradient>
    <linearGradient id="silk" x1="0" y1="0" x2="1" y2="1">
      <stop offset="0%" stop-color="#d4a050"/>
      <stop offset="50%" stop-color="#c89840"/>
      <stop offset="100%" stop-color="#a07030"/>
    </linearGradient>
  </defs>
  <rect width="1024" height="768" fill="url(#bg5)"/>
  
  <ellipse cx="300" cy="350" rx="150" ry="180" fill="url(#porcelain)" stroke="#8090a0" stroke-width="2"/>
  <ellipse cx="300" cy="300" rx="80" ry="50" fill="none" stroke="#4050a0" stroke-width="2" opacity="0.6"/>
  <path d="M240,330 Q260,310 280,330" stroke="#4050a0" stroke-width="1.5" fill="none" opacity="0.5"/>
  <path d="M300,330 Q320,310 340,330" stroke="#4050a0" stroke-width="1.5" fill="none" opacity="0.5"/>
  <circle cx="300" cy="370" r="8" fill="#4050a0" opacity="0.4"/>
  
  <ellipse cx="650" cy="280" rx="140" ry="160" fill="url(#porcelain)" stroke="#8090a0" stroke-width="2"/>
  <path d="M570,240 Q590,220 610,240" stroke="#b03030" stroke-width="2" fill="none" opacity="0.5"/>
  <path d="M650,240 Q670,220 690,240" stroke="#b03030" stroke-width="2" fill="none" opacity="0.5"/>
  <circle cx="600" cy="300" r="6" fill="#b03030" opacity="0.5"/>
  <circle cx="700" cy="300" r="6" fill="#b03030" opacity="0.5"/>
  
  <path d="M450,560 Q500,540 550,560 L570,680 Q520,700 470,680Z" fill="url(#silk)" opacity="0.6"/>
  <path d="M460,570 Q510,550 560,570" stroke="#c89840" stroke-width="3" fill="none"/>
  <path d="M470,590 Q520,570 550,590" stroke="#c89840" stroke-width="3" fill="none"/>
  
  <text x="512" y="500" text-anchor="middle" fill="#4a3a2a" font-family="serif" font-size="22">中国瓷器 · 丝绸之宝</text>
  <text x="512" y="730" text-anchor="middle" fill="#6a5a4a" font-family="serif" font-size="24">陶瓷与丝绸：跨越千年的东方瑰宝</text>
</svg>