<svg xmlns="http://www.w3.org/2000/svg" viewBox="0 0 1024 768" width="1024" height="768">
<defs>
  <linearGradient id="g1" x1="0" y1="0" x2="0" y2="1">
    <stop offset="0%" stop-color="#1a2a4a"/><stop offset="60%" stop-color="#4a6a9a"/><stop offset="100%" stop-color="#c8a878"/>
  </linearGradient>
</defs>
<rect width="1024" height="768" fill="url(#g1)"/>
<rect x="0" y="580" width="1024" height="188" fill="#8b6a40"/>
<rect x="0" y="548" width="1024" height="35" fill="#b08a50"/>
<rect x="100" y="420" width="824" height="130" fill="#c8a060" stroke="#a08040" stroke-width="3"/>
<rect x="120" y="390" width="40" height="33" fill="#c8a060" stroke="#a08040" stroke-width="2"/>
<rect x="190" y="390" width="40" height="33" fill="#c8a060" stroke="#a08040" stroke-width="2"/>
<rect x="260" y="390" width="40" height="33" fill="#c8a060" stroke="#a08040" stroke-width="2"/>
<rect x="330" y="390" width="40" height="33" fill="#c8a060" stroke="#a08040" stroke-width="2"/>
<rect x="400" y="390" width="40" height="33" fill="#c8a060" stroke="#a08040" stroke-width="2"/>
<rect x="470" y="390" width="40" height="33" fill="#c8a060" stroke="#a08040" stroke-width="2"/>
<rect x="540" y="390" width="40" height="33" fill="#c8a060" stroke="#a08040" stroke-width="2"/>
<rect x="610" y="390" width="40" height="33" fill="#c8a060" stroke="#a08040" stroke-width="2"/>
<rect x="680" y="390" width="40" height="33" fill="#c8a060" stroke="#a08040" stroke-width="2"/>
<rect x="750" y="390" width="40" height="33" fill="#c8a060" stroke="#a08040" stroke-width="2"/>
<rect x="820" y="390" width="40" height="33" fill="#c8a060" stroke="#a08040" stroke-width="2"/>
<rect x="380" y="255" width="264" height="168" fill="#d4b070" stroke="#a08040" stroke-width="2"/>
<polygon points="380,255 512,175 644,255" fill="#8b5a20" stroke="#6a4010" stroke-width="2"/>
<path d="M440,420 Q512,338 584,420" fill="#2a1a0a" stroke="#6a4010" stroke-width="2"/>
<circle cx="450" cy="305" r="11" fill="#ff8020" opacity="0.8"/>
<circle cx="574" cy="305" r="11" fill="#ff8020" opacity="0.8"/>
<g transform="translate(690,500)"><g transform="scale(0.7,0.7)">
  <ellipse cx="0" cy="0" rx="38" ry="21" fill="#8B6914"/>
  <ellipse cx="-20" cy="-17" rx="11" ry="16" fill="#8B6914"/>
  <ellipse cx="-25" cy="-33" rx="7" ry="11" fill="#8B6914"/>
  <ellipse cx="7" cy="-11" rx="5" ry="12" fill="#7a5a10"/>
  <ellipse cx="17" cy="-6" rx="5" ry="12" fill="#7a5a10"/>
  <ellipse cx="27" cy="-1" rx="5" ry="12" fill="#7a5a10"/>
  <ellipse cx="37" cy="5" rx="5" ry="12" fill="#7a5a10"/>
</g></g>
<g transform="translate(810,492)"><g transform="scale(0.62,0.62)">
  <ellipse cx="0" cy="0" rx="38" ry="21" fill="#8B6914"/>
  <ellipse cx="-20" cy="-17" rx="11" ry="16" fill="#8B6914"/>
  <ellipse cx="-25" cy="-33" rx="7" ry="11" fill="#8B6914"/>
  <ellipse cx="7" cy="-11" rx="5" ry="12" fill="#7a5a10"/>
  <ellipse cx="17" cy="-6" rx="5" ry="12" fill="#7a5a10"/>
  <ellipse cx="27" cy="-1" rx="5" ry="12" fill="#7a5a10"/>
  <ellipse cx="37" cy="5" rx="5" ry="12" fill="#7a5a10"/>
</g></g>
<g transform="translate(512,345)"><rect x="-59" y="-22" width="119" height="42" rx="4" fill="#0a0a1ecc" stroke="#f0d78c55" stroke-width="1"/><text x="0" y="-4" text-anchor="middle" fill="#f0d78c" font-family="serif" font-size="15" font-weight="bold">长安 Chang-an</text><text x="0" y="16" text-anchor="middle" fill="#f0d78c88" font-family="serif" font-size="11">汉武帝派张骞出使西域 起点</text></g>
<rect x="0" y="702" width="1024" height="50" fill="#0a0a1ecc"/><text x="512" y="730" text-anchor="middle" fill="#f0d78c" font-family="serif" font-size="24" font-weight="bold">长安 · 丝绸之路的起点</text><text x="512" y="750" text-anchor="middle" fill="#f0d78c99" font-family="serif" font-size="13">公元前2世纪 · 西汉都城 · 商队西行出发地</text>
</svg>