<svg xmlns="http://www.w3.org/2000/svg" viewBox="0 0 1024 768" width="1024" height="768">
<defs>
  <linearGradient id="g19" x1="0" y1="0" x2="0" y2="1">
    <stop offset="0%" stop-color="#0a1a3a"/><stop offset="60%" stop-color="#1a4a7a"/><stop offset="100%" stop-color="#2a6a9a"/>
  </linearGradient>
  <linearGradient id="sea19" x1="0" y1="0" x2="0" y2="1">
    <stop offset="0%" stop-color="#1a5080"/><stop offset="100%" stop-color="#0a2a50"/>
  </linearGradient>
</defs>
<rect width="1024" height="768" fill="url(#g19)"/>
<circle cx="100" cy="78" r="2" fill="white" opacity="0.9"/>
<circle cx="250" cy="48" r="1.5" fill="white" opacity="0.7"/>
<circle cx="450" cy="73" r="2" fill="white" opacity="0.8"/>
<circle cx="650" cy="43" r="1.5" fill="white" opacity="0.6"/>
<circle cx="850" cy="63" r="2" fill="white" opacity="0.9"/>
<ellipse cx="778" cy="98" rx="42" ry="40" fill="none" stroke="#f0e090" stroke-width="2"/>
<circle cx="793" cy="90" r="33" fill="#0a1a3a"/>
<rect x="0" y="278" width="1024" height="490" fill="url(#sea19)"/>
<path d="M0,318 Q80,298 160,313 Q240,296 320,310 Q400,293 480,308 Q560,291 640,306 Q720,289 800,304 Q880,287 1024,300" stroke="#3a80b0" stroke-width="2" fill="none" opacity="0.7"/>
<path d="M0,358 Q100,340 200,354 Q300,336 400,350 Q500,333 600,347 Q700,330 800,344 Q900,328 1024,340" stroke="#3a80b0" stroke-width="1.5" fill="none" opacity="0.5"/>
<path d="M0,398 Q120,380 240,394 Q360,376 480,390 Q600,372 720,386 Q840,368 1024,380" stroke="#3a80b0" stroke-width="1.5" fill="none" opacity="0.4"/>
<path d="M348,318 Q450,293 552,308 Q530,358 428,356 Q368,353 348,318Z" fill="#3a2010"/>
<rect x="436" y="248" width="6" height="77" fill="#3a2010"/>
<path d="M441,250 Q532,283 441,318" fill="#d4b060" opacity="0.9"/>
<path d="M678,338 Q752,320 823,331 Q811,366 740,364 Q690,361 678,338Z" fill="#2a1808" opacity="0.8"/>
<rect x="737" y="293" width="4" height="53" fill="#2a1808" opacity="0.8"/>
<path d="M740,295 L803,316 L740,334" fill="#c0a050" opacity="0.7"/>
<circle cx="178" cy="498" r="62" fill="none" stroke="#f0d06044" stroke-width="1"/>
<path d="M178,443 L178,553" stroke="#f0d060" stroke-width="2" opacity="0.6"/>
<path d="M123,498 L233,498" stroke="#f0d060" stroke-width="2" opacity="0.6"/>
<path d="M138,458 L218,538" stroke="#f0d060" stroke-width="1" opacity="0.4"/>
<path d="M218,458 L138,538" stroke="#f0d060" stroke-width="1" opacity="0.4"/>
<text x="178" y="436" text-anchor="middle" fill="#f0d060" font-size="13" opacity="0.7">N</text>
<path d="M598,178 Q680,198 762,183 Q832,193 903,178" stroke="#f0d06066" stroke-width="2" fill="none" stroke-dasharray="5,5"/>
<text x="752" y="168" fill="#f0d060" font-family="serif" font-size="14" opacity="0.7">季风航线</text>
<g transform="translate(512,293)"><rect x="-91" y="-22" width="182" height="42" rx="4" fill="#0a0a1ecc" stroke="#f0d78c55" stroke-width="1"/><text x="0" y="-4" text-anchor="middle" fill="#f0d78c" font-family="serif" font-size="15" font-weight="bold">印度洋 · Indian Ocean</text><text x="0" y="16" text-anchor="middle" fill="#f0d78c88" font-family="serif" font-size="11">海上丝路 · 季风贸易路线</text></g>
<rect x="0" y="702" width="1024" height="50" fill="#0a0a1ecc"/><text x="512" y="730" text-anchor="middle" fill="#f0d78c" font-family="serif" font-size="24" font-weight="bold">印度洋 · 季风海上丝绸之路</text><text x="512" y="750" text-anchor="middle" fill="#f0d78c99" font-family="serif" font-size="13">阿拉伯商人与中国船队往来的贸易大洋</text>
</svg>