<svg xmlns="http://www.w3.org/2000/svg" viewBox="0 0 800 600">
  <defs><linearGradient id="bg" x1="0" y1="0" x2="1" y2="1"><stop offset="0%" stop-color="#1a1a2e"/><stop offset="100%" stop-color="#0f3460"/></linearGradient></defs>
  <rect width="800" height="600" fill="url(#bg)"/>
  <text x="400" y="80" text-anchor="middle" fill="#f0d78c" font-family="sans-serif" font-size="28" font-weight="bold">现代考古视角</text>
  <rect x="70" y="130" width="200" height="160" rx="10" fill="#16213e" stroke="#8ec8f2" stroke-width="1.5"/>
  <circle cx="170" cy="195" r="35" fill="none" stroke="#8ec8f2" stroke-width="2.5"/>
  <circle cx="170" cy="195" r="10" fill="#8ec8f2" opacity="0.3"/>
  <text x="170" y="265" text-anchor="middle" fill="#8ec8f2" font-family="sans-serif" font-size="13" font-weight="bold">3D扫描</text>
  <rect x="300" y="130" width="200" height="160" rx="10" fill="#16213e" stroke="#8ec8f2" stroke-width="1.5"/>
  <circle cx="400" cy="195" r="30" fill="none" stroke="#8ec8f2" stroke-width="2"/>
  <path d="M380,175 L400,155 L420,175" fill="none" stroke="#8ec8f2" stroke-width="1.5"/>
  <line x1="400" y1="175" x2="400" y2="220" stroke="#8ec8f2" stroke-width="1"/>
  <text x="400" y="265" text-anchor="middle" fill="#8ec8f2" font-family="sans-serif" font-size="13" font-weight="bold">无人机测绘</text>
  <rect x="530" y="130" width="200" height="160" rx="10" fill="#16213e" stroke="#8ec8f2" stroke-width="1.5"/>
  <rect x="560" y="160" width="140" height="90" rx="6" fill="none" stroke="#8ec8f2" stroke-width="2"/>
  <rect x="570" y="170" width="50" height="35" rx="3" fill="#8ec8f2" opacity="0.25"/>
  <rect x="630" y="170" width="50" height="35" rx="3" fill="#8ec8f2" opacity="0.15"/>
  <text x="630" y="265" text-anchor="middle" fill="#8ec8f2" font-family="sans-serif" font-size="13" font-weight="bold">数字重建</text>
  <text x="400" y="430" text-anchor="middle" fill="rgba(255,255,255,0.9)" font-family="sans-serif" font-size="15">技术帮助文明重新连接</text>
</svg>
